<!-- Generator: Adobe Illustrator 23.0.2, SVG Export Plug-In  -->
<svg version="1.1" xmlns="http://www.w3.org/2000/svg" xmlns:xlink="http://www.w3.org/1999/xlink" x="0px" y="0px"
	 width="230.891px" height="53.584px" viewBox="0 0 230.891 53.584" style="enable-background:new 0 0 230.891 53.584;"
	 xml:space="preserve">
<style type="text/css">
	.st0{fill:#FFFFFF;}
	.st1{fill:#F4436C;}
</style>
<defs>
</defs>
<path class="st0" d="M230.843,42.457l-0.008-0.244c-0.039-2.072-1.146-3.98-2.933-5.043c-1.202-0.715-1.721-0.761-4.602-1.019
	c-0.945-0.085-2.308-0.207-3.317-0.307c-0.022-0.26-0.041-0.507-0.053-0.742c2.219,0.104,3.663-0.299,4.966-1.314
	c0.321-0.25,0.616-0.531,0.88-0.842c1.507-1.768,1.507-3.592,1.507-5.356v-2.543c0-0.817-0.167-1.62-0.484-2.361
	c1.185-0.49,1.986-1.272,2.529-2.096c1.1-1.509,1.076-2.747,1-6.761l-0.005-0.202c0-3.313-2.687-6-6-6h-3.838l-4.68-0.127
	c-0.827-0.022-1.63-0.013-2.434-0.023c-0.682-0.009-1.359-0.019-2.037-0.021c-0.48-0.037-0.862-0.016-1.104,0.001
	c-0.888,0.025-1.724,0.249-2.475,0.619c-0.421-0.094-0.858-0.148-1.308-0.148l-13.663,0.13c-0.255,0-0.599-0.006-0.969-0.012
	c-1.672-0.026-2.935-0.037-4.038,0.206c-0.704-0.482-1.51-0.827-2.39-0.975c-1.354-0.226-4.767,0.078-5.404,0.203
	c-1.314,0.258-2.464,0.936-3.313,1.883c-0.338-0.328-0.714-0.615-1.121-0.856c-2.72-1.609-7.461-0.559-7.508-0.549
	c-0.115,0.027-0.219,0.075-0.331,0.108c-0.695-0.282-1.454-0.44-2.25-0.44h-3.838l-4.68-0.127c-0.828-0.022-1.63-0.013-2.434-0.023
	c-0.682-0.009-1.359-0.019-2.037-0.021c-0.48-0.037-0.862-0.016-1.104,0.001c-1.266,0.036-2.431,0.468-3.383,1.171
	c-1.448-0.209-3.511-0.209-4.087-0.158c-2.108,0.19-3.932,1.471-4.844,3.324c-0.596-1.193-0.703-1.319-1.077-1.758
	c-1.276-1.497-3.216-2.265-5.163-2.079c-0.133,0.014-0.265,0.017-0.396,0.017c-0.229-0.001-0.46-0.004-0.689,0.009l-0.067-0.001
	c-0.429-0.014-1.142-0.032-2.025,0.128c-1.896,0.342-3.466,1.569-4.297,3.241c-0.07-0.125-0.147-0.25-0.238-0.393
	c-1.034-1.619-2.78-2.646-4.697-2.761c-1.8-0.107-3.353-0.139-4.892-0.094c-2.509,0.071-4.698,1.702-5.502,4.072
	c-0.73-1.672-2.189-2.94-3.985-3.407c-1.352-0.352-4.152-0.359-4.836-0.298c-2.108,0.19-3.931,1.472-4.843,3.324
	c-0.596-1.193-0.702-1.318-1.077-1.758c-1.277-1.497-3.212-2.265-5.163-2.079c-0.133,0.014-0.265,0.017-0.396,0.017
	c-0.23-0.001-0.461-0.004-0.689,0.009l-0.067-0.001c-0.349-0.011-0.894-0.02-1.559,0.062c-1.141-1.083-2.679-1.712-4.307-1.663
	c-0.691,0.021-1.42,0.03-2.156,0.041c-0.78,0.011-1.569,0.022-2.341,0.045c-1.461,0.042-2.785,0.606-3.802,1.508
	c-0.016-0.007-0.031-0.016-0.047-0.023c-0.393-0.171-1.024-0.431-1.547-0.646c-0.258-0.106-0.482-0.198-0.612-0.253
	c-1.266-0.58-2.7-0.704-4.058-0.34c-1.035,0.278-1.967,0.825-2.708,1.574c-0.104-0.144-0.218-0.276-0.363-0.447
	c-1.953-2.292-5.315-2.771-7.843-1.135l-0.355,0.226c-0.429,0.27-0.782,0.495-1.101,0.7c-0.041-0.541-0.126-1.048-0.272-1.487
	c-0.128-0.408-0.301-0.804-0.515-1.179c-1.383-2.424-2.072-3.076-2.332-3.322c-1.691-1.6-4.151-2.078-6.319-1.228
	c-1.19,0.468-1.386,0.653-4.678,3.771c-0.04,0.038-0.085,0.082-0.124,0.121l-0.258,0.255c-3.503,3.46-4.574,4.519-4.785,6.49
	c-0.395-0.48-0.808-0.955-1.259-1.42c-0.584-0.622-1.17-1-1.49-1.188c-0.132-0.084-0.267-0.163-0.405-0.236
	c-1.019-0.545-2.085-1.015-3.26-1.435c-0.037-0.014-0.074-0.026-0.112-0.039c-1.627-0.547-7.094-0.571-7.148-0.571
	c-2.266,0-4.238,1.258-5.259,3.112c-0.701-0.36-1.451-0.673-2.273-0.936c-1.717-0.543-3.488-0.874-5.738-1.071
	c-0.91-0.095-1.812-0.143-2.608-0.186L7.215,7.076C7.108,7.071,7.002,7.068,6.895,7.068H6.163c-3.256,0-5.906,2.594-5.998,5.828
	c-0.02,0.22-0.033,0.426-0.037,0.628c-0.019,0.547-0.027,1.093-0.037,1.64c-0.009,0.511-0.017,1.021-0.034,1.532
	c-0.003,0.069-0.004,0.138-0.004,0.207c0,0.797-0.009,1.594-0.018,2.391c-0.009,0.824-0.019,1.647-0.019,2.472
	c-0.024,1.493-0.017,2.986-0.008,4.48c0.004,0.721,0.008,1.442,0.008,2.163c0,0.693-0.004,1.382-0.008,2.069
	C0,31.901-0.008,33.318,0.016,34.752c0,1.125,0.01,2.238,0.019,3.348c0.009,1.082,0.018,2.159,0.018,3.236
	c0,0.056,0.001,0.111,0.002,0.167l0.023,1c0.081,3.714,0.146,6.719,3.004,8.357c0.83,0.503,2.053,0.941,3.849,0.941
	c0.895,0,1.932-0.108,3.133-0.372c2.081-0.458,5.703-1.832,6.438-3.729c0.488-1.195-0.042-3.505-0.042-3.505
	c0.313,3.834,2.506,6.147,5.312,7.831c1.086,0.638,2.316,0.839,3.439,0.839c1.624,0,3.021-0.422,3.423-0.556
	c1.065-0.354,2.016-1.005,2.735-1.854l0.004,0.003c0.062-0.072,0.119-0.144,0.176-0.214c0.876,0.501,1.866,0.753,2.966,0.753
	c1.067,0,2.115-0.285,3.036-0.825c0.479-0.282,0.789-0.533,1.51-1.166c0.912,0.827,2.026,1.633,3.235,2.066
	c1.514,0.548,3.55,0.663,4.876,0.663c0.663,0,1.149-0.029,1.301-0.047c0.15-0.018,0.301-0.041,0.45-0.07
	c1.412-0.275,2.619-0.799,3.691-1.602c0.034-0.025,0.066-0.054,0.099-0.081c1.062,1.083,2.465,1.764,3.662,2.328
	c1.144,0.586,3.786,1.575,6.432,0.008c0.582-0.345,1.101-0.784,1.535-1.302c0.438-0.52,0.538-0.64,1.674-3.068
	c0.106,0.285,0.213,0.569,0.319,0.854c0.027,0.072,0.057,0.145,0.087,0.216c0.317,0.751,0.829,1.801,1.462,2.534
	c0.422,0.488,0.92,0.905,1.475,1.235c0.938,0.559,2.003,0.842,3.072,0.842c0.753,0,1.508-0.141,2.223-0.425
	c0.897-0.356,1.507-0.798,3.003-2.032c0.134-0.11,0.261-0.216,0.388-0.322c1.013,0.435,2.059,0.579,2.963,0.579
	c0.313,0,0.61-0.017,0.882-0.042c1.11-0.006,2.707-0.073,4.17-0.715c1.43,0.605,2.938,0.608,4.157,0.599
	c2.54-0.017,4.042-1.354,4.754-2.201c0.902-1.097,1.205-1.825,1.346-3.582c0.166,1.583,0.491,2.691,1.437,3.841
	c0.03,0.036,0.06,0.071,0.09,0.107c1.777,2.061,4.09,2.205,6.206,2.205c0.174,0,0.346-0.001,0.516-0.002
	c0.568-0.003,1.96-0.027,3.368-0.8c0.957,0.472,2.062,0.869,3.277,0.869c0.932,0,1.927-0.233,2.968-0.844
	c0.235-0.138,0.462-0.292,0.677-0.461c1.188-0.936,1.708-2.052,2.02-2.719l0.021-0.046c0.083-0.153,0.159-0.311,0.229-0.471
	c0.38-0.878,0.749-1.94,1.078-2.993c0.334,0.936,0.654,1.795,0.926,2.458c0.212,0.545,0.71,1.694,1.419,2.535
	c1.14,1.354,2.818,2.134,4.588,2.134c0.439,0,0.73,0,2.56-0.376c0.302-0.062,0.669-0.139,1.069-0.245
	c1.378,0.583,2.833,0.59,4.092,0.59c2.458,0,3.957-1.169,4.773-2.141c0.934-1.105,1.249-1.848,1.396-3.642
	c0.156,1.492,0.475,2.669,1.438,3.84c0.038,0.046,0.077,0.092,0.116,0.137c1.75,2.004,4.01,2.177,6.096,2.177
	c0.222,0,0.44-0.002,0.657-0.004c0.501-0.004,1.652-0.02,2.888-0.576c0.692,0.286,1.448,0.448,2.241,0.456l0.552,0.008
	c0.828,0.014,2.237,0.035,2.853,0.035c0.923,0,1.835-0.011,2.748-0.021c0.929-0.012,1.838-0.004,2.801-0.024
	c0.366-0.013,0.899-0.024,1.476-0.038c2.522-0.057,4.113-0.096,5.363-0.545c0.858,0.42,1.83,0.64,2.919,0.64
	c0.015,0,0.029,0,0.044,0c2.385-0.012,4.851-0.024,6.746-2.274c0.176-0.208,0.336-0.427,0.48-0.655
	c0.496,0.725,0.971,1.07,1.779,1.551c1.915,1.109,6.807,1.109,8.724,0c1.139-0.659,2.029-1.674,2.534-2.889
	c0.247-0.593,0.386-0.928,0.44-1.789c0.089,1.689,0.17,2.238,0.548,3.126c0.352,0.825,0.883,1.562,1.556,2.154
	c1.467,1.292,3.088,1.566,4.647,1.566c0.599,0,1.189-0.04,1.758-0.079c0.847-0.059,2.444-0.168,3.913-1.274
	c0.952-0.702,1.53-1.547,1.889-2.392c1.047,1.722,2.935,2.881,5.093,2.902l0.555,0.008c0.828,0.014,2.235,0.035,2.851,0.035
	c0.922,0,1.834-0.011,2.747-0.021c0.929-0.012,1.844-0.004,2.802-0.024c0.366-0.013,0.899-0.024,1.476-0.038
	c4.289-0.097,5.895-0.134,7.689-2.24C231.007,47.355,230.955,45.82,230.843,42.457z M3.138,43.875
	c0.012-0.038,0.022-0.076,0.034-0.113c0.019-0.061,0.038-0.121,0.059-0.184C3.198,43.677,3.167,43.776,3.138,43.875z M8.989,40.401
	c0.005,0.002,0.009,0.005,0.014,0.007c0.05,0.026,0.099,0.053,0.147,0.079C9.097,40.457,9.044,40.429,8.989,40.401z M196.837,41.607
	c-0.227,0.194-0.441,0.401-0.637,0.627C196.406,41.995,196.621,41.792,196.837,41.607z"/>
<g>
	<path class="st1" d="M19.707,18.897c-0.152-0.451-0.307-0.901-0.532-1.422c-0.388-0.745-0.881-1.607-1.553-2.297
		c-0.213-0.25-0.511-0.568-0.939-0.832c-0.709-0.518-1.534-0.924-2.525-1.24c-1.368-0.433-2.824-0.698-4.701-0.86
		c-0.789-0.084-1.613-0.129-2.405-0.171l-0.888-0.007c-0.553,0-1,0.447-1,1c0,0.104-0.009,0.189-0.017,0.266
		c-0.012,0.12-0.021,0.229-0.02,0.305c-0.019,0.536-0.027,1.073-0.037,1.61c-0.009,0.54-0.018,1.08-0.037,1.654
		c0,0.815-0.009,1.631-0.018,2.445c-0.01,0.822-0.019,1.645-0.019,2.45C4.992,23.271,5,24.744,5.009,26.217
		c0.004,0.73,0.008,1.461,0.008,2.191c0,0.703-0.004,1.402-0.008,2.1C5,31.909,4.992,33.304,5.016,34.701
		c0,1.128,0.009,2.246,0.019,3.358c0.009,1.096,0.018,2.187,0.018,3.305l0.024,1.031c0.087,3.992,0.087,3.992,0.796,4.269
		l0.012-0.028c0.29,0.102,0.668,0.138,1.06,0.138c0.972,0,2.029-0.223,2.046-0.227c0.529-0.116,0.757-0.413,0.854-0.672
		c0.092-0.229,0.113-0.454-0.008-4.954c-0.035-1.26-0.146-5.764-0.146-6.694l-0.002-0.59c-0.003-0.521-0.009-1.453,0.008-2.027
		c0.108-0.037,0.215-0.071,0.293-0.095l2.188-0.729c0.262-0.091,0.522-0.183,0.781-0.276c0.204-0.075,0.407-0.147,0.61-0.219
		c0.495-0.175,1.007-0.354,1.483-0.573c1.115-0.473,2.043-1.012,2.873-1.68c1.076-0.95,1.807-2.129,2.171-3.502
		c0.168-0.599,0.348-1.409,0.245-2.43C20.176,20.94,20.025,19.966,19.707,18.897z M15.326,24.394
		c-0.455,0.329-2.44,1.321-2.836,1.456c-0.265,0.071-1.522,0.201-2.832,0.312l0.029-9.125c1.094,0.02,2.198,0.119,2.564,0.295
		l0.4,0.189c0.616,0.29,2.007,0.945,2.423,1.333c0.205,0.543,0.706,2.562,0.748,3.114C15.81,22.403,15.532,23.956,15.326,24.394z"/>
	<path class="st1" d="M36.936,42.802c-0.135-0.31-0.275-0.63-0.394-0.972c-1.037-2.616-2.156-5.159-3.262-7.671
		c-0.044-0.085-0.079-0.17-0.115-0.256c-0.048-0.111-0.096-0.224-0.151-0.335c-0.086-0.229-0.258-0.648-0.45-1.118
		c-0.184-0.446-0.479-1.166-0.658-1.634c1.533-1.667,2.398-2.719,2.559-3.098c0.312-0.655,1.441-3.93,1.488-4.994
		c0.04-0.847,0-1.682-0.118-2.468c-0.204-1.487-0.694-2.866-1.443-4.07c-0.611-1.058-1.426-2.11-2.373-3.074
		c-0.185-0.219-0.385-0.332-0.517-0.403c-0.045-0.035-0.093-0.066-0.143-0.093c-0.801-0.428-1.647-0.8-2.607-1.144
		c-0.491-0.165-5.511-0.311-5.557-0.311c-0.553,0-1,0.447-1,1l0.001,2.359c0.035,1.109,0.035,2.176,0.035,3.261l0.11,6.552
		c0.038,1.898,0.15,3.779,0.259,5.598c0.036,0.619,0.063,1.239,0.09,1.859c0.028,0.63,0.056,1.26,0.095,1.937
		c0.037,0.813,0.074,1.627,0.144,2.388c0.034,0.971,0.101,1.905,0.169,2.871l0.346,4.802c0.295,3.589,0.391,3.646,0.858,3.927
		c0.162,0.096,0.429,0.13,0.733,0.13c0.853,0,2.007-0.273,2.021-0.278c0.182-0.061,0.358-0.181,0.49-0.332l0.004,0.004
		c0.259-0.308,0.366-0.435,0.235-5.429c0-0.729-0.032-1.46-0.065-2.189c-0.017-0.358-0.032-0.717-0.045-1.074l-0.11-3.459
		c-0.041-0.936-0.066-1.845-0.067-2.38c0.098-0.045,0.202-0.093,0.306-0.138c0.133,0.314,0.298,0.703,0.479,1.133
		c0.69,1.632,1.631,3.853,2.144,5.004c0.844,1.772,1.657,3.599,2.421,5.311c0.749,1.982,1.302,1.982,1.668,1.982
		c0.178,0,0.353-0.048,0.506-0.138c0.021-0.013,2.143-1.455,2.143-2.327c0-0.134-0.027-0.267-0.079-0.391L36.936,42.802z
		 M28.174,16.703c0.167,0.063,0.702,0.424,1.114,0.745c0.581,0.495,1.305,1.182,1.405,1.33c0.168,0.331,0.463,1.249,0.527,1.738
		c0.028,0.162,0.023,0.787-0.007,1.369l-0.379,1.599c-0.226,0.339-0.878,1.279-1.712,2.101c-0.008,0.007-0.015,0.015-0.022,0.022
		c-0.491,0.517-1.371,1.024-2.066,1.354c-0.011-0.34-0.023-0.772-0.04-1.326c-0.05-1.648-0.133-4.381-0.277-8.971
		C27.372,16.632,27.953,16.642,28.174,16.703z"/>
	<path class="st1" d="M54.451,28.237c0-0.601-0.086-1.69-0.143-2.411c-0.021-0.266-0.038-0.466-0.04-0.52
		c0-0.034-0.002-0.067-0.005-0.101c-0.114-1.127-0.788-4.383-0.951-5.007c-0.331-1.126-0.777-2.177-1.409-3.316
		c-0.171-0.301-0.391-0.614-0.579-0.835c-0.535-0.72-1.123-1.336-1.833-1.926c-0.857-0.742-1.774-1.129-2.69-1.152
		c0.185-0.188,0.331-0.336,0.382-0.386c0.992-0.95,1.957-1.953,2.865-2.903c0.334-0.295,0.622-0.587,0.905-0.92
		c0.153-0.182,0.238-0.411,0.238-0.648c0-0.145-0.021-0.279-0.063-0.405c-0.021-0.092-0.057-0.181-0.104-0.264
		c-0.01-0.018-1.059-1.82-1.427-2.169c-0.282-0.267-0.693-0.347-1.053-0.204c-0.231,0.091-0.287,0.112-3.09,2.768l-0.285,0.282
		c-3.341,3.3-3.341,3.3-3.341,3.827c0,0.51,1.051,1.505,1.921,2.116c-0.315,0.273-0.631,0.574-0.861,0.8
		c-0.347,0.35-0.804,1.323-1.127,2.08c-0.543,1.278-1.76,4.849-1.906,5.366c-0.711,2.413-1.107,4.604-1.212,6.698l-0.111,2.289
		c0,0.664,0.182,4.142,0.345,4.955c0.288,1.653,1.322,5.677,1.555,6.219c0.132,0.268,0.274,0.534,0.416,0.801
		c0.133,0.25,0.266,0.501,0.417,0.801c0.167,0.294,1.684,1.948,2.701,2.289c0.759,0.298,2.32,0.378,3.271,0.378
		c0.347,0,0.612-0.011,0.729-0.025c0.454-0.089,1.053-0.248,1.716-0.748c0.431-0.379,0.896-0.759,1.345-1.125
		c0.408-0.317,1.514-2.362,1.719-2.948c0.775-2.145,1.263-4.362,1.449-6.607c0.024-0.365,0.054-0.726,0.083-1.084
		c0.058-0.71,0.114-1.415,0.138-2.125c0.037-0.792,0.074-1.626,0.074-2.46c0-0.014,0-0.027-0.001-0.041
		C54.487,29.575,54.451,28.697,54.451,28.237z M50.587,32.873c0.006,0.292-0.207,1.671-0.286,2.19l-0.064,0.438
		c-0.135,0.524-1.783,4.455-2.286,5.41c-0.3,0.127-0.814,0.312-0.979,0.335c-0.183,0.009-0.516-0.027-1.218-0.103
		c-0.307-0.219-0.895-0.646-1.174-0.855c-0.116-0.09-0.177-0.162-0.259-0.307l-0.185-0.338c-0.06-0.11-0.119-0.22-0.186-0.337
		c-0.266-0.71-1.388-5.071-1.479-5.99c-0.035-0.759-0.035-1.478-0.039-2.323c-0.034-0.401-0.026-0.732,0.03-1.066
		c0.057-0.396,0.104-0.792,0.15-1.188c0.045-0.379,0.09-0.759,0.142-1.129l0.029-0.188c0.063-0.414,0.127-0.834,0.195-1.309
		c0.046-0.39,0.154-0.778,0.268-1.188l0.113-0.418c0.199-0.822,2.002-5.19,2.56-6.241c0.325-0.076,0.965-0.171,1.504-0.226
		c0.167,0.068,0.457,0.213,0.494,0.23c0.032,0.026,0.339,0.309,1.28,1.815c0.139,0.26,0.264,0.579,0.348,0.868
		c0.088,0.396,0.193,1.062,0.299,1.729c0.114,0.712,0.229,1.425,0.323,1.849l0.001-0.001c0.014,0.057,0.031,0.113,0.053,0.168
		c0.09,0.446,0.151,0.893,0.184,1.353c0.035,0.354,0.062,0.706,0.088,1.06c0.029,0.38,0.058,0.759,0.095,1.131
		c0.033,0.357,0.032,0.715,0.032,1.071c0,0.593-0.035,1.777-0.036,1.779c0,0.011,0,0.021,0,0.03L50.587,32.873z"/>
	<path class="st1" d="M70.61,29.767c-0.233-0.646-0.419-1.159-0.529-1.46c0.098-0.55,0.388-2.02,0.573-2.784
		c0.292-1.32,0.617-2.641,0.943-3.96c0.161-0.657,0.323-1.313,0.48-1.968c1.425-5.867,1.301-6.227,1.219-6.465
		c-0.091-0.266-0.29-0.48-0.547-0.592c-0.37-0.161-0.966-0.406-1.459-0.608c-0.374-0.154-0.686-0.281-0.704-0.285
		c-0.23-0.136-0.506-0.173-0.766-0.104c-0.259,0.069-0.479,0.24-0.61,0.474c-0.126,0.222-0.247,0.598-0.951,3.467
		c-0.086,0.35-0.148,0.606-0.168,0.678l-0.219,0.772c-0.011,0.038-0.021,0.092-0.028,0.131c-0.02,0.123-0.092,0.397-0.162,0.672
		c-0.08,0.314-0.157,0.629-0.191,0.805c-0.032,0.127-0.109,0.432-0.214,0.848c-0.167,0.665-0.499,1.991-0.819,3.233
		c-0.206-0.531-0.387-0.987-0.479-1.208c-0.695-1.582-2.021-4.832-2.988-7.205c-1.21-2.968-1.21-2.968-1.344-3.124
		c-0.325-0.382-0.884-0.466-1.308-0.188l-0.418,0.265c-1.693,1.068-2.275,1.46-2.49,1.676c-0.146,0.146-0.242,0.334-0.277,0.536
		c-0.061,0.349-0.076,0.442,1.197,3.895l0.545,1.489c0.093,0.251,0.186,0.502,0.288,0.793c0.076,0.197,0.159,0.394,0.242,0.594
		c0.114,0.272,0.23,0.551,0.336,0.847c0.2,0.561,0.434,1.121,0.668,1.682c0.112,0.271,0.226,0.54,0.335,0.812
		c0.675,1.666,1.815,4.582,2.122,5.433c-0.091,0.284-0.266,0.767-0.372,0.993c-0.096,0.254-0.21,0.485-0.328,0.728l-0.642,1.456
		c-0.335,0.777-0.675,1.568-0.997,2.354c-0.804,1.935-1.606,3.869-2.456,5.822c-0.238,0.584-0.478,1.179-0.716,1.772
		c-0.237,0.591-0.475,1.182-0.721,1.785c-0.547,1.439-0.624,1.893-0.573,2.162c0.04,0.481,0.349,0.777,2.467,1.771
		c0.243,0.143,1.086,0.58,1.712,0.213c0.097-0.058,0.184-0.131,0.256-0.217c0.104-0.124,0.139-0.165,2.311-4.854
		c0.338-0.771,0.685-1.545,1.03-2.317c0.368-0.821,0.736-1.644,1.086-2.444c0.448-0.968,0.862-1.984,1.263-2.968
		c0.054-0.128,0.12-0.292,0.193-0.477c0.231,0.604,0.51,1.336,0.836,2.198c0.305,0.847,0.623,1.678,0.938,2.502
		c0.216,0.564,0.431,1.126,0.645,1.701c0.448,1.154,0.872,2.309,1.292,3.454c0.3,0.819,0.599,1.634,0.918,2.478
		c0.004,0.009,0.439,0.979,0.641,1.212c0.07,0.082,0.153,0.151,0.246,0.206c0.155,0.093,0.336,0.14,0.516,0.14
		c0.129,0,0.258-0.024,0.379-0.072c0.025-0.01,2.77-1.922,3.205-2.74l0.007,0.003c0.146-0.35,0.244-0.58-2.695-8.534
		C72.587,35.241,71.35,31.818,70.61,29.767z"/>
	<path class="st1" d="M84.485,39.653c-0.027-0.9-0.055-1.8-0.072-2.696c-0.074-2.705-0.146-10.186-0.146-10.961V15.911
		c0-0.328,0.004-0.796,0.008-1.283c0.02-2.395,0.02-2.395-0.09-2.646c-0.162-0.376-0.503-0.6-0.948-0.604
		c-0.718,0.022-1.472,0.032-2.235,0.043c-0.757,0.011-1.521,0.022-2.269,0.043c-0.541,0.016-0.972,0.459-0.972,1
		c0,0.204,0.038,1.56,0.075,2.125c0.056,0.979,0.102,1.958,0.147,2.937c0.046,0.96,0.091,1.921,0.146,2.886l0.109,1.801
		c0.024,0.465,0.052,0.931,0.08,1.397c0.057,0.951,0.114,1.908,0.14,2.911c0.055,1.075,0.092,2.161,0.128,3.253
		c0.037,1.095,0.074,2.195,0.129,3.279c0.048,1.438,0.129,2.874,0.211,4.312c0.041,0.724,0.082,1.446,0.119,2.186l0.108,1.686
		c0.12,4.269,0.334,4.523,0.499,4.719c0.3,0.348,0.908,0.424,1.385,0.424c0.246,0,0.458-0.021,0.573-0.034
		c2.547-0.006,2.69-0.352,2.867-0.776c0.2-0.464,0.082-3.129,0.082-3.13C84.541,41.516,84.512,40.584,84.485,39.653z"/>
	<path class="st1" d="M105.988,38.904c-0.013-0.604-0.028-1.214-0.045-1.825c-0.032-1.211-0.064-2.43-0.065-3.662
		c-0.048-1.422-0.064-2.845-0.08-4.268c-0.009-0.727-0.017-1.453-0.029-2.175c-0.019-1.422-0.046-2.845-0.074-4.266
		c-0.027-1.38-0.054-2.759-0.072-4.156c-0.014-0.431-0.027-1.074-0.041-1.721c-0.049-2.321-0.056-2.348-0.104-2.523
		c-0.096-0.344-0.367-0.61-0.712-0.7c-0.484-0.126-2.598-0.205-3.126-0.157c-0.382,0.034-0.733,0.355-0.869,0.714
		c-0.021,0.058-0.059,0.114-0.084,0.158c-0.26,0.438-0.511,0.885-0.762,1.333c-0.243,0.436-0.487,0.871-0.748,1.31
		c-0.453,0.788-0.915,1.577-1.377,2.365c-0.472,0.807-0.944,1.612-1.4,2.408c-0.098,0.165-0.234,0.375-0.38,0.587
		c-0.262-0.475-0.521-0.957-0.768-1.449c-0.432-0.82-1.526-3.064-2.407-4.867c-1.267-2.596-1.267-2.596-1.381-2.729
		c-0.212-0.25-0.536-0.378-0.86-0.347c-0.406,0.041-0.812,0.039-1.307,0.043c-0.164,0.015-0.323,0.009-0.48,0.004
		c-0.295-0.01-0.626-0.019-1.002,0.05c-0.4,0.072-0.718,0.381-0.801,0.779c-0.092,0.438-0.028,8.389,0.09,11.2
		c0.049,1.002,0.064,2.023,0.081,3.051c0.008,0.511,0.016,1.022,0.027,1.522c0.019,1.593,0.028,3.173,0.037,4.754
		c0.01,1.544,0.019,3.087,0.036,4.648l0.11,5.669c0,0.48,0.019,0.817,0.279,1.127c0.221,0.257,0.418,0.441,2.51,0.445
		c0.199-0.002,0.611-0.004,0.925-0.377c0.247-0.3,0.247-0.3,0.35-3.936l0.024-0.865c0.019-1.286,0.047-2.571,0.074-3.852
		c0.027-1.252,0.054-2.497,0.071-3.715c0.02-0.595,0.029-1.19,0.038-1.785c0.009-0.568,0.018-1.138,0.036-1.707l0.109-3.664
		c0.006-0.203,0.011-0.446,0.016-0.711c0.296,0.536,0.602,1.096,0.888,1.628c0.176,0.328,0.352,0.649,0.525,0.966
		c0.258,0.471,0.511,0.932,0.747,1.387c0.141,0.274,0.329,0.557,0.531,0.795c0.348,0.411,0.956,0.472,1.381,0.14
		c0.129-0.102,0.291-0.27,0.928-1.018c0.811-0.997,1.62-2.036,2.395-3.034c0.216-0.277,0.662-0.823,1.121-1.369
		c0.102,1.353,0.219,3.027,0.277,4.091c0.071,1.206,0.292,7.731,0.329,9.729l0.221,4.314c0.139,2.491,0.281,2.664,0.46,2.883
		c0.233,0.271,0.404,0.468,2.67,0.468c0.076,0,0.155,0,0.237,0c0.498-0.003,0.928-0.006,1.253-0.392
		c0.064-0.076,0.116-0.161,0.155-0.253c0.097-0.226,0.116-0.272,0.116-2.354c-0.018-0.762-0.027-1.533-0.036-2.306
		C106.016,40.491,106.007,39.69,105.988,38.904z"/>
	<path class="st1" d="M126.221,33.634c-0.999-4.095-2.242-9.19-2.474-10.035c-0.128-0.431-0.247-0.861-0.365-1.291
		c-0.119-0.432-0.238-0.862-0.367-1.298c-0.318-1.06-0.773-2.713-1.171-4.156c-0.821-2.988-0.838-3.013-0.96-3.204
		c-0.172-0.27-0.463-0.44-0.783-0.46c-1.648-0.099-3.064-0.124-4.447-0.088c-0.426,0.013-0.796,0.292-0.925,0.697
		c-0.059,0.186-0.108,0.371-0.157,0.557c-0.043,0.158-0.084,0.316-0.149,0.524c-0.883,3.34-4.378,18.578-4.777,20.713
		c-1.395,7.438-1.491,8.733-1.438,9.075L108.2,44.67c0.095,0.329,0.325,0.574,0.562,0.801c0.073,0.087,0.161,0.161,0.26,0.219
		c1.224,0.718,1.768,0.971,2.143,0.971c0.181,0,0.322-0.059,0.481-0.152c0.039-0.022,0.077-0.049,0.113-0.077
		c0.242-0.19,0.366-0.441,0.583-0.905c0.048-0.104,0.092-0.201,0.117-0.247c0.028-0.045,0.054-0.092,0.075-0.141
		c1.012-2.338,2.027-6.622,2.062-6.773c0.263-0.978,0.581-2.1,0.784-2.751c1.109,0.021,3.453,0.091,5.279,0.149
		c0.584,1.811,2.194,6.747,3.086,8.911c0.06,0.176,0.404,0.97,0.622,1.229c0.19,0.226,0.47,0.355,0.765,0.355
		c0.031,0,3.094-0.171,3.594-1.217l0.003,0.001c0.132-0.314,0.205-0.487-1.38-6.79C127.134,37.375,126.708,35.627,126.221,33.634z
		 M119.554,29.607l-3.215,0.001l1.502-7.646l0.743,2.809L119.554,29.607z"/>
	<path class="st1" d="M148.697,38.903c-0.013-0.593-0.028-1.191-0.045-1.79c-0.032-1.223-0.065-2.452-0.066-3.696
		c-0.049-1.435-0.064-2.87-0.08-4.306c-0.009-0.714-0.017-1.427-0.028-2.138c-0.019-1.384-0.046-2.769-0.072-4.153
		c-0.028-1.416-0.056-2.833-0.075-4.269c-0.014-0.438-0.027-1.099-0.041-1.757c-0.049-2.285-0.057-2.312-0.104-2.486
		c-0.096-0.344-0.367-0.61-0.712-0.7c-0.484-0.126-2.597-0.207-3.126-0.157c-0.383,0.035-0.735,0.354-0.87,0.716
		c-0.021,0.057-0.058,0.112-0.083,0.157c-0.26,0.437-0.51,0.884-0.761,1.332c-0.244,0.436-0.487,0.871-0.748,1.31
		c-0.453,0.788-0.915,1.576-1.377,2.364c-0.472,0.807-0.944,1.612-1.401,2.409c-0.098,0.165-0.234,0.375-0.38,0.587
		c-0.262-0.475-0.521-0.957-0.768-1.449c-0.429-0.816-1.52-3.05-2.396-4.844c-1.278-2.618-1.278-2.618-1.393-2.752
		c-0.212-0.25-0.533-0.378-0.86-0.347c-0.406,0.041-0.812,0.039-1.307,0.043c-0.164,0.015-0.323,0.009-0.48,0.004
		c-0.296-0.01-0.626-0.019-1.002,0.05c-0.4,0.072-0.718,0.381-0.801,0.779c-0.092,0.438-0.028,8.389,0.09,11.2
		c0.049,0.993,0.064,2.006,0.081,3.024c0.008,0.519,0.017,1.04,0.028,1.549c0.018,1.55,0.027,3.089,0.036,4.629
		c0.009,1.585,0.019,3.17,0.037,4.773l0.109,5.669c0,0.485,0.02,0.825,0.271,1.117c0.239,0.284,0.383,0.455,2.48,0.455
		c0.241,0,0.646,0,0.953-0.366c0.257-0.305,0.257-0.305,0.362-4.072l0.021-0.739c0.019-1.268,0.046-2.536,0.073-3.799
		c0.027-1.269,0.055-2.532,0.072-3.768c0.02-0.595,0.029-1.19,0.038-1.785c0.009-0.568,0.018-1.138,0.036-1.707l0.11-3.664
		c0.006-0.203,0.011-0.445,0.016-0.709c0.282,0.511,0.584,1.062,0.888,1.626c0.177,0.33,0.354,0.653,0.529,0.973
		c0.256,0.469,0.508,0.928,0.742,1.377c0.139,0.274,0.327,0.558,0.531,0.798c0.346,0.408,0.954,0.473,1.377,0.143
		c0.089-0.069,0.199-0.155,0.932-1.021c0.81-0.997,1.621-2.036,2.394-3.033c0.217-0.277,0.664-0.823,1.122-1.369
		c0.102,1.339,0.218,2.997,0.278,4.089c0.071,1.222,0.292,7.748,0.328,9.73l0.221,4.316c0.143,2.494,0.276,2.657,0.465,2.886
		c0.217,0.248,0.405,0.464,2.608,0.464c0.106,0,0.218-0.001,0.334-0.002c0.458-0.004,0.89-0.008,1.213-0.391
		c0.062-0.074,0.113-0.156,0.151-0.244c0.101-0.229,0.121-0.276,0.121-2.362c-0.019-0.782-0.028-1.575-0.037-2.368
		C148.723,40.45,148.715,39.669,148.697,38.903z"/>
	<path class="st1" d="M166.973,42.327c0-0.353-0.186-0.68-0.489-0.859c-0.224-0.134-0.224-0.134-2.492-0.337
		c-1.688-0.15-3.999-0.357-4.856-0.48c-0.447-0.071-1.183-0.076-1.962-0.081c-0.268-0.002-0.604-0.004-0.896-0.011
		c-0.022-0.622-0.036-1.514-0.046-2.131c-0.009-0.599-0.018-1.134-0.033-1.497c-0.072-0.773-0.142-1.503-0.142-2.302
		c-0.019-0.633-0.027-1.267-0.036-1.899c-0.009-0.66-0.019-1.32-0.037-1.951c0-0.22,0.008-0.609,0.019-0.978
		c0.82,0.041,1.931,0.099,2.421,0.127l2.067,0.122c1.967,0.193,2.318-0.088,2.471-0.206c0.054-0.042,0.103-0.089,0.146-0.141
		c0.271-0.318,0.312-0.595,0.312-2.113v-2.543c0-0.237-0.084-0.466-0.237-0.647c-0.345-0.406-0.498-0.455-3.932-0.597l-0.3-0.013
		c-0.875-0.042-2.204-0.123-3.031-0.189c0-0.273,0.001-0.582,0.003-0.861c0.006-1.246,0.012-2.659-0.055-3.315
		c-0.015-0.133-0.031-0.592-0.044-1.034c0.5-0.04,1.02-0.086,1.153-0.101c2.424-0.128,4.385,0.005,6.942-0.134
		c0.149-0.012,0.443,0.017,0.718,0.036c0.784,0.056,1.369,0.099,1.694-0.43c0.201-0.269,0.195-0.576,0.134-3.837l-0.006-0.298
		c0-0.553-0.447-1-1-1h-3.892l-4.79-0.129c-0.787,0-1.565-0.011-2.339-0.021c-0.744-0.011-1.484-0.021-2.224-0.021
		c-0.207-0.031-0.39-0.017-0.53-0.008c-0.047,0.004-0.095,0.008-0.146,0.008c-0.553,0-1,0.447-1,1l0.009,0.909
		c0.032,0.782,0.064,1.531,0.064,2.31c0.02,0.606,0.028,1.213,0.037,1.819c0.01,0.6,0.019,1.2,0.036,1.771
		c0,1.945,0,3.891,0.037,5.86c0,1.349,0.033,2.717,0.066,4.078c0.016,0.646,0.031,1.291,0.043,1.912
		c0,2.006,0.049,3.746,0.148,5.324l0.331,4.939c0.036,0.861,0.074,1.761,0.144,2.535c0,0.114,0.01,0.229,0.022,0.35
		c0.006,0.064,0.015,0.134,0.015,0.211c0,0.552,0.448,0.999,1,1l0.596,0.009c0.805,0.013,2.176,0.034,2.773,0.034
		c0.902,0,1.795-0.011,2.688-0.021c0.884-0.011,1.768-0.021,2.694-0.022c0.38-0.013,0.933-0.024,1.529-0.038
		c3.655-0.083,3.655-0.083,3.997-0.485c0.293-0.344,0.311-0.364,0.212-3.325L166.973,42.327z"/>
	<path class="st1" d="M186.716,37.134c-0.009-0.287-0.019-0.573-0.037-0.854l-0.219-3.827c-0.037-0.729-0.064-1.457-0.092-2.186
		c-0.027-0.736-0.056-1.474-0.093-2.218l-0.127-2.237c-0.066-1.135-0.132-2.239-0.166-3.405l-0.11-1.94
		c-0.073-1.294-0.146-2.545-0.221-3.809l-0.094-1.359c-0.107-1.584-0.146-2.104-0.173-2.267c-0.07-0.421-0.4-0.751-0.821-0.821
		c-0.451-0.077-3.165,0.089-3.617,0.178c-0.438,0.086-0.766,0.451-0.804,0.896c-0.043,0.496-0.006,0.893,0.03,1.276l1.002-0.027l0,0
		l-0.998,0.06c0.01,0.166,0.089,1.207,0.2,2.67c0.282,3.716,0.809,10.634,0.86,11.962c0.041,1.03,0.083,2.101,0.121,3.119
		l-3.278-8.126c-0.438-1.149-0.935-2.374-1.517-3.74c-0.312-0.734-0.624-1.458-0.937-2.182c-0.311-0.72-0.621-1.44-0.939-2.189
		l-0.395-0.892c-0.892-2.019-0.908-2.038-1.039-2.191c-0.071-0.084-0.156-0.156-0.251-0.212c-0.565-0.334-3.788,0.01-3.816,0.016
		c-0.451,0.106-0.771,0.51-0.771,0.974c0,0.099,0.058,1.361,0.122,2.751l0.136,2.954c0.054,0.887,0.099,1.763,0.144,2.633
		c0.047,0.908,0.094,1.811,0.148,2.688c0.036,1.015,0.082,2.029,0.128,3.045c0.046,1.01,0.092,2.021,0.129,3.046l0.22,4.251
		l0.221,6.054l0.072,1.34c0.175,3.319,0.175,3.319,0.425,3.608c0.29,0.338,0.655,0.358,0.961,0.358c0.022,0,0.045,0,0.066,0
		c2.542-0.013,2.704-0.205,2.949-0.496c0.065-0.077,0.118-0.164,0.157-0.257c0.17-0.404,0.074-2.517,0.042-3.119
		c-0.019-1.102-0.047-2.192-0.074-3.283c-0.027-1.086-0.055-2.171-0.073-3.271c-0.036-1.731-0.073-3.463-0.147-5.193l-0.109-2.631
		c-0.025-0.564-0.106-1.797-0.2-3.173c0.2,0.491,0.4,0.979,0.6,1.467l0.162,0.396c0.517,1.3,1.032,2.557,1.579,3.844l0.04,0.1
		c0.868,2.126,1.736,4.252,2.634,6.362c0.203,0.501,0.416,1.001,0.629,1.502c0.209,0.49,0.417,0.981,0.631,1.505l0.61,1.368
		c1.771,3.972,1.771,3.972,2.108,4.173c0.381,0.221,3.333,0.221,3.714,0c0.189-0.109,0.338-0.279,0.423-0.481
		c0.087-0.211,0.146-0.351-0.109-7.389C186.733,37.679,186.724,37.407,186.716,37.134z"/>
	<path class="st1" d="M207.448,13.929c0-0.553-0.447-1-1-1l-13.663,0.13c-0.276,0-0.647-0.006-1.048-0.013
		c-2.662-0.042-2.907-0.019-3.275,0.305c-0.144,0.126-0.248,0.291-0.301,0.475c-0.009,0.031-0.297,3.639,0.493,4.254
		c0.034,0.026,0.07,0.052,0.108,0.073c0.203,0.119,0.203,0.119,3.088,0.516c1.253,0.172,2.972,0.408,3.934,0.552
		c0.046,1.002,0.104,2.535,0.104,2.983c0,0.521,0.034,1.021,0.069,1.516c0.016,0.218,0.031,0.434,0.041,0.596
		c0,0.668,0.037,1.29,0.074,1.886c0.034,1.075,0.401,10.219,0.476,11.301c0,0.28,0.07,1.854,0.118,2.896l0.028,0.636
		c0.019,0.452,0.046,0.916,0.073,1.379s0.055,0.926,0.073,1.386l0.014,0.285c0.109,2.316,0.121,2.344,0.212,2.558
		c0.059,0.138,0.146,0.26,0.259,0.358c0.186,0.163,0.352,0.31,1.365,0.31c0.351,0,0.803-0.018,1.393-0.058
		c0.615-0.042,0.99-0.068,1.28-0.308c0.444-0.346,0.444-0.913,0.444-1.795l0.005-0.255c0.034-1.728,0.068-3.418,0.068-5.107
		c0-2.23-0.035-4.462-0.07-6.692l-0.003-0.174c-0.024-1.832-0.017-3.665-0.008-5.497c0.004-0.921,0.008-1.842,0.008-2.763
		c0-1.431,0.063-4.007,0.107-5.221c0.587-0.132,1.493-0.315,2.164-0.451c2.882-0.584,3.153-0.64,3.317-1.125
		c0.153-0.298,0.141-0.866,0.058-3.718L207.448,13.929z"/>
	<path class="st1" d="M225.845,42.624l-0.01-0.297c0-0.353-0.186-0.68-0.489-0.859c-0.224-0.134-0.224-0.134-2.492-0.337
		c-1.688-0.15-3.999-0.357-4.856-0.48c-0.447-0.071-1.183-0.076-1.962-0.081c-0.268-0.002-0.604-0.004-0.896-0.011
		c-0.023-0.643-0.038-1.569-0.047-2.158c-0.009-0.587-0.017-1.11-0.032-1.47c-0.072-0.773-0.142-1.503-0.142-2.302
		c-0.02-0.65-0.028-1.301-0.037-1.951c-0.01-0.643-0.019-1.285-0.036-1.899c0-0.209,0.008-0.604,0.019-0.978
		c0.819,0.041,1.931,0.099,2.421,0.127l2.067,0.122c1.967,0.193,2.319-0.088,2.471-0.206c0.054-0.042,0.103-0.089,0.146-0.141
		c0.271-0.318,0.312-0.595,0.312-2.113v-2.543c0-0.237-0.084-0.466-0.237-0.647c-0.345-0.406-0.498-0.455-3.932-0.597l-0.3-0.013
		c-0.875-0.042-2.204-0.123-3.031-0.189c0-0.273,0.001-0.582,0.003-0.861c0.006-1.246,0.012-2.659-0.055-3.315
		c-0.015-0.133-0.031-0.592-0.044-1.034c0.5-0.04,1.02-0.086,1.153-0.101c2.424-0.128,4.385,0.005,6.942-0.134
		c0.153-0.012,0.443,0.017,0.718,0.036c0.783,0.056,1.37,0.099,1.694-0.43c0.201-0.269,0.195-0.576,0.134-3.837l-0.006-0.298
		c0-0.553-0.447-1-1-1h-3.892l-4.79-0.129c-0.787,0-1.565-0.011-2.339-0.021c-0.744-0.011-1.484-0.021-2.224-0.021
		c-0.207-0.031-0.39-0.017-0.53-0.008c-0.047,0.004-0.095,0.008-0.146,0.008c-0.553,0-1,0.447-1,1l0.009,0.909
		c0.032,0.782,0.064,1.531,0.064,2.31c0.019,0.59,0.027,1.181,0.036,1.771c0.009,0.617,0.019,1.233,0.037,1.819
		c0,1.945,0,3.891,0.037,5.86c0,1.349,0.033,2.717,0.066,4.078c0.016,0.646,0.031,1.291,0.043,1.912
		c0,2.006,0.049,3.746,0.148,5.324l0.331,4.939c0.036,0.861,0.074,1.761,0.144,2.535c0,0.113,0.01,0.227,0.021,0.347
		c0.007,0.065,0.015,0.136,0.015,0.214c0,0.552,0.448,0.999,1,1l0.598,0.009c0.806,0.013,2.174,0.034,2.772,0.034
		c0.901,0,1.794-0.011,2.687-0.021c0.885-0.011,1.769-0.021,2.695-0.022c0.38-0.013,0.933-0.024,1.529-0.038
		c3.655-0.083,3.655-0.083,3.997-0.485C225.927,45.606,225.944,45.585,225.845,42.624z"/>
</g>
</svg>